<?xml version="1.0" encoding="utf-8"?>
<svg xmlns="http://www.w3.org/2000/svg" height="512pt" version="1.1" viewBox="0 0 512 512" width="512pt">
<path d="M 0.00 0.00 L 512.00 0.00 L 512.00 512.00 L 0.00 512.00 L 0.00 0.00 Z" fill="transparent" opacity="1.00" stroke="transparent" stroke-width="0.25"/>
<path d="M 234.99 44.31 C 265.90 41.05 297.50 45.06 326.63 55.87 C 326.80 56.30 327.14 57.17 327.31 57.60 C 327.98 57.33 328.65 57.05 329.32 56.77 C 347.63 64.31 365.21 73.89 380.55 86.49 C 395.41 98.58 408.92 112.39 420.06 128.01 C 435.58 149.97 447.69 174.67 453.37 201.05 C 463.06 245.85 457.12 293.64 437.77 335.11 C 429.33 353.77 417.90 371.00 404.53 386.47 C 403.50 387.58 402.40 388.59 401.28 389.59 C 399.55 388.81 397.77 388.15 395.99 387.51 C 396.47 385.99 397.42 384.72 398.53 383.60 C 439.25 338.90 458.43 275.66 449.74 215.85 C 446.78 192.82 438.67 170.69 427.11 150.61 C 415.73 130.37 400.80 112.13 383.29 96.89 C 354.94 71.56 318.54 55.75 280.94 50.81 C 249.08 46.90 216.15 50.53 186.19 62.18 C 158.71 72.48 133.87 89.46 113.83 110.84 C 93.41 131.99 78.68 158.21 69.40 186.00 C 62.54 207.94 59.14 231.04 60.44 254.03 C 62.88 299.52 80.42 344.73 111.68 378.17 C 109.88 379.09 108.18 380.38 106.15 380.74 C 104.99 380.39 104.30 379.29 103.46 378.49 C 76.14 347.23 59.68 307.09 55.29 265.93 C 52.28 238.59 54.99 210.66 63.55 184.51 C 72.64 156.74 87.18 130.52 107.00 108.95 C 139.70 72.58 186.24 48.84 234.99 44.31 Z" fill="#040404" opacity="1.00" stroke="#040404" stroke-width="0.25"/>
<path d="M 215.77 60.75 C 238.16 56.02 261.41 54.85 284.05 58.45 C 322.13 64.33 358.36 82.03 385.96 108.98 C 403.05 125.05 417.06 144.34 427.43 165.36 C 446.20 201.95 449.94 245.14 441.34 285.08 C 441.14 284.64 440.73 283.76 440.52 283.32 C 440.75 285.14 441.05 287.02 440.55 288.83 C 438.99 295.41 437.48 302.03 435.01 308.35 C 434.48 309.49 433.59 307.95 433.12 307.58 C 432.40 311.14 429.91 314.41 430.52 318.15 C 429.12 318.82 427.96 319.83 427.55 321.38 C 425.43 327.89 421.91 333.79 419.14 340.02 C 418.46 341.02 417.85 342.06 417.18 343.06 C 409.94 355.92 400.39 367.40 389.60 377.44 C 389.58 377.74 389.53 378.36 389.50 378.67 C 388.42 378.65 387.35 378.63 386.28 378.62 C 399.14 366.03 410.68 351.91 419.05 335.91 C 442.10 293.51 448.38 242.10 435.64 195.51 C 423.79 152.91 395.43 115.74 359.13 90.88 C 342.08 79.36 323.08 70.78 303.19 65.53 C 260.44 53.81 213.47 58.74 173.89 78.60 C 162.02 84.64 150.59 91.67 140.14 99.94 C 132.57 106.44 124.83 112.86 118.27 120.41 C 104.41 135.01 93.42 152.33 85.64 170.87 C 70.00 206.27 65.19 246.91 74.58 284.62 C 73.98 285.60 73.35 286.56 72.70 287.51 C 72.65 286.34 72.56 284.00 72.51 282.84 C 72.53 284.04 72.19 288.43 70.58 285.88 C 70.18 282.17 69.29 278.54 68.68 274.87 C 66.29 260.70 66.06 246.28 66.49 231.95 C 67.52 219.86 69.51 207.82 72.69 196.10 C 80.45 170.06 93.07 145.31 110.59 124.47 C 137.56 92.67 174.96 69.65 215.77 60.75 Z" fill="#040404" opacity="1.00" stroke="#040404" stroke-width="0.25"/>
<path d="M 242.03 76.28 C 256.87 72.44 272.86 73.89 286.91 79.94 C 307.89 89.04 326.49 104.09 338.76 123.50 C 347.26 136.97 354.06 151.61 357.83 167.13 C 358.41 170.10 361.77 171.32 362.74 174.01 C 363.24 181.00 362.49 188.01 362.38 195.00 C 362.55 196.96 361.08 198.42 360.24 200.04 C 365.25 203.08 369.84 207.31 371.78 212.99 C 378.12 229.70 368.64 250.77 351.48 256.35 C 350.17 271.67 348.75 287.03 345.55 302.09 C 344.71 305.55 346.67 308.77 347.69 311.96 C 350.35 319.34 355.36 325.53 360.87 330.96 C 359.60 334.47 354.96 333.42 352.14 332.86 C 345.89 331.12 339.34 328.78 334.74 324.01 C 333.88 327.94 333.44 331.94 332.73 335.91 C 338.90 337.67 344.81 340.40 350.23 343.81 C 352.54 345.01 352.11 347.88 352.19 350.04 C 351.95 367.43 352.65 384.84 351.88 402.21 C 339.77 406.91 326.89 409.09 314.13 411.26 C 304.77 412.87 295.28 413.38 285.84 414.16 C 285.41 414.02 284.57 413.74 284.14 413.60 C 288.73 412.56 293.45 412.49 298.12 412.06 C 314.32 410.26 330.44 407.46 346.17 403.15 C 345.91 391.45 346.44 379.74 345.97 368.05 C 341.98 377.04 334.73 383.99 327.40 390.30 C 322.83 394.10 317.48 396.79 312.76 400.39 C 311.87 400.02 310.98 399.48 310.02 400.02 C 306.30 401.29 302.09 401.31 298.82 403.70 C 295.81 405.64 292.83 407.70 289.46 408.96 C 293.62 401.97 292.78 393.48 290.74 385.96 C 289.70 390.62 288.44 395.24 286.52 399.62 C 285.66 401.28 287.30 403.36 286.02 404.88 C 283.27 409.06 277.99 410.35 273.27 410.29 C 279.92 401.48 284.55 391.07 286.35 380.17 C 288.03 364.49 283.80 348.83 285.51 333.13 C 286.62 321.24 291.83 310.05 291.87 298.02 C 292.13 291.01 289.79 284.27 287.19 277.87 C 285.18 272.10 281.13 267.21 275.99 263.95 C 269.32 259.48 261.54 254.09 253.11 256.49 C 245.87 259.39 238.96 264.47 235.89 271.86 C 232.34 280.44 229.98 289.71 230.35 299.05 C 230.52 306.26 233.84 312.90 234.36 320.06 C 235.24 335.12 231.77 349.95 231.23 364.95 C 230.85 374.23 233.24 383.36 236.51 391.97 C 238.98 398.06 241.18 404.33 245.03 409.73 C 237.14 409.88 228.67 409.65 221.71 405.46 C 220.89 406.24 220.08 407.04 219.28 407.84 C 217.97 407.38 217.09 406.33 216.67 405.03 C 214.74 399.66 212.69 394.34 210.74 388.98 C 209.12 391.96 207.39 394.92 206.40 398.19 C 210.64 399.45 211.65 403.82 212.73 407.55 C 197.50 401.87 184.49 391.03 175.23 377.77 C 176.27 384.77 176.05 391.90 176.16 398.97 C 176.95 402.08 172.37 402.94 173.22 406.05 C 179.85 406.96 186.30 408.85 192.91 409.91 C 201.59 411.27 210.29 412.59 219.05 413.38 C 220.09 413.39 221.06 413.85 222.02 414.21 C 220.01 414.50 217.98 414.45 215.97 414.20 C 197.35 412.13 178.53 409.55 160.86 403.06 C 159.50 402.47 157.20 402.04 157.44 400.07 C 157.31 391.14 156.86 382.21 156.64 373.28 C 152.81 375.50 149.03 377.87 145.78 380.89 C 141.21 384.72 137.83 389.71 133.81 394.04 C 131.15 396.10 127.96 392.80 129.51 389.99 C 135.66 379.50 145.57 371.60 156.52 366.53 C 156.33 361.06 156.26 355.58 156.49 350.10 C 146.07 353.46 135.62 357.94 127.69 365.71 C 125.11 368.09 123.75 371.47 121.08 373.76 C 116.97 370.26 113.64 366.00 110.03 362.02 C 108.54 360.40 107.94 357.89 105.58 357.27 C 105.45 355.34 104.12 353.95 102.65 352.87 C 103.18 354.04 103.97 355.02 105.01 355.80 C 104.89 356.85 104.67 357.89 104.39 358.91 C 103.09 356.22 101.18 353.92 99.42 351.53 C 90.89 339.16 84.12 325.64 78.68 311.65 L 77.29 310.74 C 78.35 310.89 79.41 311.04 80.47 311.19 C 81.50 316.60 84.34 321.54 87.04 326.27 C 85.07 321.10 81.99 316.37 80.72 310.93 C 80.12 310.91 78.92 310.85 78.32 310.83 C 78.79 310.09 79.73 308.61 80.20 307.86 C 79.43 308.71 78.74 309.62 78.04 310.53 C 75.68 303.23 73.54 295.85 71.20 288.54 C 74.12 287.00 73.49 292.83 74.78 294.48 C 74.63 292.29 74.02 290.18 73.36 288.10 C 73.89 287.41 74.42 286.73 74.95 286.05 C 76.51 293.94 79.09 301.60 81.76 309.18 C 89.82 330.50 101.85 350.22 116.99 367.24 C 125.81 357.33 137.24 350.07 149.76 345.77 C 153.57 344.71 157.18 342.74 161.18 342.53 C 161.42 342.92 161.91 343.69 162.16 344.08 C 162.92 363.68 163.17 383.32 163.36 402.95 C 166.48 403.78 169.53 404.82 172.65 405.68 C 172.57 385.79 172.21 365.90 172.15 346.01 C 172.28 343.19 171.58 339.87 173.92 337.74 C 175.41 337.39 176.89 337.01 178.38 336.62 C 177.25 331.46 177.77 326.17 177.73 320.94 C 172.16 323.35 166.38 326.18 160.13 325.60 C 163.09 317.67 169.12 311.11 171.63 302.94 C 171.78 301.26 171.58 299.57 171.37 297.91 C 168.73 283.05 167.85 267.95 167.25 252.89 C 166.66 251.66 165.08 251.67 164.03 251.06 C 149.24 244.44 142.00 225.31 148.25 210.45 C 150.05 205.88 153.82 202.61 157.23 199.26 C 156.76 198.77 155.83 197.78 155.36 197.29 C 154.89 189.19 153.95 181.05 154.35 172.94 C 156.00 170.72 158.65 169.37 160.03 166.94 C 164.00 147.39 172.68 128.73 185.23 113.20 C 199.84 95.51 219.72 82.01 242.03 76.28 Z" fill="#040404" opacity="1.00" stroke="#040404" stroke-width="0.25"/>
<path d="M 227.50 87.72 C 245.19 78.37 267.42 76.66 285.60 85.65 C 291.70 88.50 293.09 95.95 293.87 101.98 C 295.09 114.45 294.76 127.05 293.61 139.51 C 270.12 132.93 244.91 132.66 221.41 139.35 C 221.26 139.12 220.96 138.68 220.81 138.45 C 220.15 126.64 219.74 114.77 220.69 102.97 C 221.52 97.51 222.68 91.13 227.50 87.72 Z" fill="#fafafa" opacity="1.00" stroke="#fafafa" stroke-width="0.25"/>
<path d="M 219.17 91.20 C 219.52 90.98 220.23 90.54 220.58 90.33 C 217.93 95.84 216.58 101.91 216.53 108.02 C 216.29 118.80 216.46 129.61 217.51 140.35 C 215.04 141.44 212.51 142.49 209.79 142.74 C 208.76 127.70 206.82 111.89 212.75 97.56 C 213.52 94.35 216.71 92.93 219.17 91.20 Z" fill="#fafafa" opacity="1.00" stroke="#fafafa" stroke-width="0.25"/>
<path d="M 294.22 90.05 C 297.43 92.06 300.71 94.54 302.00 98.27 C 308.68 112.16 305.75 127.95 305.16 142.73 C 302.31 142.68 299.73 141.46 297.16 140.39 C 298.16 128.70 298.84 116.94 298.03 105.22 C 297.60 99.98 296.35 94.85 294.22 90.05 Z" fill="#fafafa" opacity="1.00" stroke="#fafafa" stroke-width="0.25"/>
<path d="M 305.20 97.00 C 325.58 110.59 339.48 132.18 347.74 154.92 C 348.94 158.20 350.29 161.46 350.76 164.95 C 346.11 162.79 341.77 160.02 337.22 157.68 C 327.92 152.64 318.25 148.30 308.53 144.13 C 309.68 135.14 309.77 126.05 309.87 116.99 C 310.04 110.06 307.91 103.31 305.20 97.00 Z" fill="#fafafa" opacity="1.00" stroke="#fafafa" stroke-width="0.25"/>
<path d="M 166.52 163.78 C 173.12 138.48 187.03 114.41 208.59 99.06 C 206.97 104.58 205.20 110.15 205.22 115.97 C 205.08 125.34 205.19 134.75 206.34 144.07 C 198.75 146.88 191.44 150.39 184.22 154.04 C 178.20 157.08 172.67 161.01 166.52 163.78 Z" fill="#fafafa" opacity="1.00" stroke="#fafafa" stroke-width="0.25"/>
<path d="M 148.59 120.53 C 150.05 118.57 150.86 116.23 152.00 114.09 C 153.04 116.59 154.02 119.14 155.55 121.40 C 156.84 122.50 159.68 122.59 159.90 124.45 C 158.63 125.05 157.28 125.46 156.09 126.21 C 153.44 128.29 154.46 132.79 151.94 134.77 C 150.48 133.66 150.85 131.54 150.25 129.99 C 149.59 126.59 146.02 125.38 143.32 123.97 C 144.84 122.47 147.26 122.26 148.59 120.53 Z" fill="#040404" opacity="1.00" stroke="#040404" stroke-width="0.25"/>
<path d="M 354.50 121.56 C 356.92 119.80 357.30 116.61 358.72 114.15 C 360.02 118.00 362.26 121.95 366.55 122.94 C 366.64 123.30 366.83 124.01 366.92 124.36 C 365.18 125.01 363.10 125.32 361.95 126.94 C 359.88 129.31 360.14 132.85 357.98 135.16 C 357.16 132.87 356.67 130.47 355.83 128.19 C 354.72 125.69 351.94 124.96 349.66 123.96 C 351.28 123.18 353.08 122.71 354.50 121.56 Z" fill="#040404" opacity="1.00" stroke="#040404" stroke-width="0.25"/>
<path d="M 216.46 144.56 C 237.54 137.90 260.28 136.16 282.00 140.57 C 294.66 142.95 306.92 147.16 318.61 152.55 C 332.48 158.91 346.10 166.02 358.53 174.94 C 358.74 177.90 358.68 180.87 358.51 183.84 C 344.51 174.91 330.25 166.25 314.90 159.83 C 295.50 151.31 274.36 145.90 253.06 146.73 C 242.59 147.36 232.12 148.77 221.99 151.56 C 205.42 155.74 190.01 163.50 175.55 172.47 C 169.82 176.07 163.89 179.48 158.92 184.12 C 158.75 181.06 158.65 178.00 158.55 174.94 C 175.88 161.55 195.50 151.00 216.46 144.56 Z" fill="#fafafa" opacity="1.00" stroke="#fafafa" stroke-width="0.25"/>
<path d="M 209.13 159.32 C 232.09 150.82 257.41 147.65 281.52 152.71 C 309.43 158.33 334.67 172.49 358.28 187.90 C 358.18 190.37 358.10 192.85 358.17 195.33 C 357.92 195.60 357.43 196.15 357.18 196.42 C 354.36 194.26 351.48 192.16 348.52 190.21 C 322.11 172.81 292.09 158.90 260.03 157.63 C 237.33 157.44 214.43 162.76 194.47 173.67 C 182.12 179.80 171.01 188.03 159.60 195.68 C 159.18 192.81 158.78 189.83 159.60 186.99 C 165.52 183.58 170.76 179.10 176.75 175.78 C 187.09 169.46 197.74 163.54 209.13 159.32 Z" fill="#fafafa" opacity="1.00" stroke="#fafafa" stroke-width="0.25"/>
<path d="M 237.96 164.75 C 246.15 163.20 254.52 162.19 262.86 162.74 C 267.89 163.31 272.92 163.90 277.93 164.66 C 277.25 166.61 275.69 168.00 274.33 169.47 C 270.91 172.96 267.96 177.14 266.77 181.94 C 266.30 185.56 268.50 189.55 272.08 190.66 C 275.11 191.98 278.50 191.48 281.67 191.05 C 279.42 195.11 278.40 199.95 279.81 204.47 C 281.91 211.29 288.78 216.65 296.08 215.94 C 304.67 215.99 312.03 207.44 310.72 198.94 C 310.05 190.81 302.23 185.71 294.82 184.32 C 301.42 183.89 308.05 186.51 312.59 191.31 C 313.45 192.20 315.63 193.84 316.40 192.12 C 313.59 186.08 310.97 179.89 307.31 174.31 C 313.21 176.43 319.21 178.90 324.16 182.81 C 326.29 190.23 328.98 197.49 331.03 204.94 C 332.01 208.26 331.91 211.81 330.78 215.07 C 326.55 228.26 323.88 241.91 319.36 255.00 C 313.87 252.68 309.90 248.01 307.09 242.90 C 302.00 233.84 292.89 226.95 282.51 225.42 C 284.18 218.07 277.45 211.61 270.38 211.46 C 270.17 206.62 269.61 201.81 269.28 196.98 C 269.00 194.63 269.13 192.10 267.83 190.03 C 266.31 199.50 267.21 209.13 267.22 218.67 C 270.40 218.34 274.52 217.18 276.57 220.48 C 277.39 223.79 273.15 224.72 271.09 226.22 C 261.04 232.15 246.98 232.15 238.44 223.57 C 236.96 222.53 238.00 220.82 238.27 219.48 C 240.31 218.60 242.51 218.41 244.71 218.50 C 245.88 209.63 247.93 200.72 247.36 191.73 C 244.93 198.30 244.46 205.49 242.18 212.14 C 235.68 212.43 230.60 218.91 231.69 225.33 C 231.01 225.42 229.65 225.59 228.97 225.68 C 223.36 227.91 217.92 231.23 214.51 236.33 C 211.60 240.04 209.81 244.46 207.01 248.23 C 204.88 251.12 201.73 252.94 198.69 254.73 C 198.35 253.99 198.04 253.25 197.76 252.50 C 193.76 236.07 189.98 219.55 184.52 203.53 C 183.81 201.63 185.02 199.77 185.61 198.03 C 187.95 192.74 190.25 187.43 192.46 182.08 C 192.97 180.58 194.29 179.60 195.67 178.94 C 200.62 176.67 205.64 174.56 210.64 172.41 C 209.01 175.14 207.46 177.96 206.67 181.08 C 205.53 185.19 203.42 189.05 203.11 193.37 C 206.62 192.09 208.60 188.61 211.87 186.93 C 215.18 184.80 219.13 184.18 223.00 184.29 C 217.09 185.65 211.00 189.04 209.11 195.20 C 205.62 204.12 212.53 214.69 221.90 215.66 C 228.89 216.89 235.89 212.34 238.55 205.97 C 240.53 201.37 239.98 195.89 237.50 191.59 C 241.32 191.89 245.83 191.68 248.55 188.58 C 250.08 187.11 250.68 185.03 251.40 183.10 C 250.22 175.04 243.50 169.92 237.96 164.75 Z" fill="#fafafa" opacity="1.00" stroke="#fafafa" stroke-width="0.25"/>
<path d="M 211.02 179.85 C 213.85 173.13 221.14 169.65 227.88 168.12 C 231.53 166.76 234.63 169.55 237.39 171.52 C 240.44 174.23 244.30 176.98 244.29 181.50 C 240.31 181.21 236.81 179.09 232.96 178.26 C 225.75 176.48 217.64 175.91 211.02 179.85 Z" fill="#fafafa" opacity="1.00" stroke="#fafafa" stroke-width="0.25"/>
<path d="M 282.80 169.88 C 286.22 167.31 290.52 168.71 294.19 169.85 C 298.90 171.31 302.84 174.43 306.20 177.95 C 306.25 178.37 306.35 179.22 306.40 179.64 C 299.63 175.77 291.38 177.00 284.15 178.74 C 280.65 179.46 277.44 181.40 273.81 181.52 C 274.16 176.27 278.80 172.66 282.80 169.88 Z" fill="#fafafa" opacity="1.00" stroke="#fafafa" stroke-width="0.25"/>
<path d="M 177.54 189.77 C 180.66 187.84 183.62 185.65 186.84 183.89 C 182.90 194.45 178.39 204.88 175.93 215.92 C 175.22 220.01 174.51 224.32 175.96 228.34 C 178.34 235.02 181.03 241.75 181.53 248.90 C 181.81 255.94 181.79 263.00 181.65 270.05 C 181.51 278.27 178.80 286.13 176.55 293.94 C 172.87 272.18 172.95 250.03 172.17 228.04 C 172.07 222.99 172.10 217.90 173.15 212.94 C 174.75 205.24 175.60 197.40 177.54 189.77 Z" fill="#fafafa" opacity="1.00" stroke="#fafafa" stroke-width="0.25"/>
<path d="M 335.50 206.85 C 333.81 199.11 330.49 191.86 328.52 184.20 C 330.96 185.46 334.01 185.97 335.94 187.99 C 336.41 190.25 336.29 192.59 336.51 194.89 C 336.99 204.06 339.51 212.94 341.34 221.90 C 342.38 230.77 335.35 237.91 334.23 246.46 C 331.79 266.99 335.24 287.68 340.07 307.63 C 341.53 314.34 344.90 320.40 348.97 325.87 C 344.50 324.19 340.23 321.56 337.36 317.68 C 334.25 313.55 332.62 308.57 330.63 303.86 C 330.31 302.71 329.34 302.00 328.51 301.26 C 327.96 305.54 329.51 309.72 329.52 313.99 C 330.10 323.48 327.41 332.68 325.70 341.92 C 322.15 356.27 319.23 370.92 313.22 384.52 C 312.88 385.09 312.44 385.61 311.90 386.06 C 311.68 380.14 310.91 374.27 309.93 368.44 C 308.04 353.33 309.56 338.02 312.12 323.09 C 314.20 310.51 314.91 297.29 310.78 285.04 C 310.60 283.62 309.35 282.88 308.40 282.02 C 308.01 287.37 309.57 292.61 309.72 297.95 C 311.67 314.82 305.77 331.24 305.73 348.05 C 305.75 355.39 306.24 362.79 305.12 370.08 C 303.35 378.04 300.56 385.74 297.57 393.31 C 295.82 384.45 293.05 375.81 291.59 366.89 C 289.18 352.43 286.76 337.31 290.99 322.94 C 293.32 315.49 295.32 307.85 295.65 300.01 C 296.32 289.80 292.98 279.79 288.31 270.85 C 283.94 263.22 275.31 259.91 269.26 253.95 C 269.94 253.59 271.30 252.88 271.98 252.52 C 279.70 256.83 287.20 261.86 295.86 264.09 C 303.53 266.09 311.95 267.69 319.63 264.87 C 323.31 263.03 328.04 260.91 328.52 256.23 C 326.72 256.34 324.94 256.61 323.17 256.88 C 327.45 243.06 330.84 228.99 334.75 215.06 C 335.44 212.40 335.98 209.59 335.50 206.85 Z" fill="#fafafa" opacity="1.00" stroke="#fafafa" stroke-width="0.25"/>
<path d="M 221.49 189.65 C 228.32 187.33 235.58 194.19 233.82 201.10 C 232.66 208.35 222.66 211.93 217.37 206.65 C 211.60 201.85 214.16 191.31 221.49 189.65 Z" fill="#fafafa" opacity="1.00" stroke="#fafafa" stroke-width="0.25"/>
<path d="M 292.10 190.14 C 299.23 187.34 307.29 195.28 304.61 202.46 C 302.95 209.10 293.82 211.80 288.85 207.07 C 283.06 202.61 284.91 192.00 292.10 190.14 Z" fill="#fafafa" opacity="1.00" stroke="#fafafa" stroke-width="0.25"/>
<path d="M 339.64 190.01 C 342.51 191.39 345.10 193.29 347.53 195.33 C 347.64 208.91 348.79 222.48 347.68 236.05 C 346.09 255.13 344.07 274.18 341.88 293.21 C 339.02 285.48 338.49 277.14 337.80 269.00 C 337.67 260.65 336.95 252.16 338.77 243.94 C 340.71 237.22 344.89 231.08 345.29 223.95 C 344.93 218.81 343.18 213.90 342.28 208.85 C 340.80 202.66 340.44 196.30 339.64 190.01 Z" fill="#fafafa" opacity="1.00" stroke="#fafafa" stroke-width="0.25"/>
<path d="M 166.23 197.89 C 168.11 196.25 170.02 194.64 171.96 193.07 C 171.74 195.48 171.40 197.88 170.87 200.25 C 169.21 199.68 167.68 198.84 166.23 197.89 Z" fill="#fafafa" opacity="1.00" stroke="#fafafa" stroke-width="0.25"/>
<path d="M 156.44 208.45 C 159.42 204.17 164.93 202.66 169.79 204.46 C 169.39 206.60 168.93 208.73 168.38 210.84 C 165.95 210.54 163.29 210.62 161.38 212.36 C 157.45 215.26 157.94 220.74 158.48 225.02 C 159.30 230.11 162.79 234.00 166.32 237.48 C 166.66 240.28 166.55 243.11 166.51 245.93 C 153.08 239.75 147.06 220.41 156.44 208.45 Z" fill="#fafafa" opacity="1.00" stroke="#fafafa" stroke-width="0.25"/>
<path d="M 352.59 204.66 C 358.54 204.36 363.38 209.27 365.98 214.17 C 371.14 227.07 365.04 243.74 352.32 249.67 C 352.33 247.24 352.12 244.79 352.52 242.40 C 359.02 236.73 363.65 227.63 361.16 218.93 C 360.18 214.94 356.68 212.05 352.74 211.25 C 352.69 209.05 352.63 206.86 352.59 204.66 Z" fill="#fafafa" opacity="1.00" stroke="#fafafa" stroke-width="0.25"/>
<path d="M 178.87 219.89 C 179.70 215.09 180.95 210.35 182.47 205.72 C 183.53 211.18 184.76 216.60 186.31 221.94 C 189.79 233.73 191.66 245.93 195.61 257.59 C 192.20 257.66 188.81 257.35 185.41 257.30 C 185.46 249.50 184.66 241.57 181.84 234.25 C 180.25 229.64 177.75 224.90 178.87 219.89 Z" fill="#fafafa" opacity="1.00" stroke="#fafafa" stroke-width="0.25"/>
<path d="M 163.52 218.84 C 164.28 217.75 164.53 215.82 166.27 216.00 C 166.17 221.42 166.87 226.85 166.30 232.26 C 164.12 228.18 163.03 223.46 163.52 218.84 Z" fill="#fafafa" opacity="1.00" stroke="#fafafa" stroke-width="0.25"/>
<path d="M 353.39 216.85 C 356.88 219.31 356.92 224.23 356.26 228.04 C 355.49 230.78 355.24 234.13 352.74 235.93 C 353.62 229.60 353.43 223.21 353.39 216.85 Z" fill="#fafafa" opacity="1.00" stroke="#fafafa" stroke-width="0.25"/>
<path d="M 223.55 234.64 C 227.02 232.32 230.84 230.00 235.08 229.62 C 240.48 233.20 246.48 235.73 252.92 236.66 C 246.69 241.12 241.34 246.71 234.76 250.69 C 224.49 257.40 212.21 261.14 199.89 260.41 C 202.94 258.57 206.29 257.14 208.92 254.68 C 215.13 248.99 216.58 239.67 223.55 234.64 Z" fill="#fafafa" opacity="1.00" stroke="#fafafa" stroke-width="0.25"/>
<path d="M 270.80 233.46 C 273.28 232.37 275.40 230.65 277.82 229.46 C 285.19 230.56 292.59 233.68 297.57 239.39 C 301.67 243.79 303.65 249.73 307.86 254.05 C 310.08 256.70 313.17 258.30 316.18 259.88 C 301.76 262.17 287.62 255.97 275.82 248.19 C 270.04 244.72 265.04 240.14 259.33 236.59 C 263.18 235.69 267.18 235.14 270.80 233.46 Z" fill="#fafafa" opacity="1.00" stroke="#fafafa" stroke-width="0.25"/>
<path d="M 254.35 241.55 C 255.43 240.52 257.00 241.25 258.07 241.90 C 261.24 243.80 264.14 246.09 267.02 248.40 C 260.30 249.98 253.34 249.42 246.65 247.96 C 248.92 245.50 251.63 243.49 254.35 241.55 Z" fill="#fafafa" opacity="1.00" stroke="#fafafa" stroke-width="0.25"/>
<path d="M 206.02 266.28 C 218.99 265.61 230.93 259.88 242.01 253.53 C 243.45 252.17 247.65 252.19 246.58 254.99 C 243.37 257.67 239.69 259.80 236.93 263.01 C 232.29 267.55 230.47 274.00 228.84 280.09 C 227.01 287.57 225.39 295.41 226.88 303.09 C 227.98 308.11 229.81 312.96 230.40 318.09 C 231.03 323.87 230.64 329.70 230.23 335.48 C 228.73 350.87 227.13 366.28 224.27 381.49 C 223.38 386.45 222.11 391.39 219.86 395.92 C 216.95 390.00 215.44 383.44 214.69 376.91 C 214.02 371.24 215.27 365.62 215.73 360.00 C 216.64 343.60 214.09 327.28 211.55 311.13 C 210.72 302.90 211.12 294.57 212.42 286.41 C 211.88 286.38 210.80 286.32 210.26 286.29 C 204.45 300.00 208.65 314.99 210.47 329.07 C 211.65 341.64 213.71 354.41 211.44 366.99 C 210.25 374.13 208.62 381.30 205.77 387.97 C 204.73 384.76 204.07 381.44 202.86 378.28 C 199.53 368.85 193.10 360.93 189.51 351.61 C 186.57 344.01 184.40 336.04 183.58 327.92 C 182.85 318.32 189.02 309.69 188.31 300.15 C 185.91 302.69 185.06 306.22 183.00 309.00 C 180.30 313.05 175.99 315.56 171.82 317.86 C 171.42 318.06 170.61 318.45 170.20 318.65 C 178.48 305.84 183.44 291.10 185.61 276.06 C 186.29 270.88 185.63 265.65 185.75 260.45 C 191.64 264.53 198.82 266.92 206.02 266.28 Z" fill="#fafafa" opacity="1.00" stroke="#fafafa" stroke-width="0.25"/>
<path d="M 259.52 278.21 C 259.90 278.35 260.67 278.63 261.06 278.77 C 262.46 287.17 264.40 295.47 266.17 303.80 C 268.96 316.81 272.86 329.63 274.33 342.90 C 275.77 357.37 272.41 371.66 270.99 385.99 C 269.69 397.65 265.17 408.52 261.26 419.48 C 270.19 419.47 279.12 419.47 288.05 419.41 C 289.38 419.47 290.82 419.26 292.05 419.88 C 292.91 421.01 292.52 422.58 292.69 423.91 C 292.69 432.63 292.75 441.35 292.69 450.06 C 292.84 451.69 292.08 453.13 291.22 454.46 C 266.24 454.84 241.25 454.67 216.26 454.52 C 215.27 453.33 214.24 452.05 214.46 450.40 C 214.30 440.96 214.35 431.52 214.41 422.09 C 214.18 420.55 215.60 419.17 217.13 419.45 C 231.28 419.38 245.44 419.49 259.59 419.44 C 254.35 407.62 251.23 394.92 250.27 382.03 C 248.98 367.10 246.29 352.12 247.83 337.11 C 250.16 317.19 255.92 297.91 259.52 278.21 Z" fill="#040404" opacity="1.00" stroke="#040404" stroke-width="0.25"/>
<path d="M 259.95 293.04 C 262.46 305.28 265.14 317.48 268.21 329.60 C 271.89 343.75 271.18 358.63 268.76 372.93 C 267.18 383.79 265.26 394.68 261.27 404.96 C 260.87 405.52 260.47 406.09 260.08 406.66 C 255.05 389.87 253.07 372.36 251.55 354.96 C 249.80 333.90 256.91 313.64 259.95 293.04 Z" fill="#fafafa" opacity="1.00" stroke="#fafafa" stroke-width="0.25"/>
<path d="M 426.22 327.26 C 426.56 327.33 427.25 327.45 427.60 327.51 C 425.16 332.24 422.92 337.07 420.56 341.84 C 419.29 342.52 418.90 341.14 419.55 340.29 C 421.38 335.77 423.73 331.46 426.22 327.26 Z" fill="#040404" opacity="1.00" stroke="#040404" stroke-width="0.25"/>
<path d="M 331.53 341.98 C 336.67 343.68 341.86 345.61 346.33 348.74 C 346.19 352.21 346.42 355.78 345.24 359.11 C 339.05 371.90 328.59 382.31 316.55 389.68 C 316.73 389.38 317.09 388.77 317.26 388.46 C 325.11 374.05 327.17 357.58 331.53 341.98 Z" fill="#fafafa" opacity="1.00" stroke="#fafafa" stroke-width="0.25"/>
<path d="M 177.18 343.84 C 178.26 343.68 179.34 343.54 180.43 343.40 C 183.30 354.33 188.80 364.23 194.45 373.92 C 198.50 380.63 200.72 388.20 202.46 395.78 C 202.19 395.51 201.64 394.96 201.37 394.69 C 191.71 387.46 182.80 378.65 177.25 367.85 C 176.91 359.86 177.26 351.84 177.18 343.84 Z" fill="#fafafa" opacity="1.00" stroke="#fafafa" stroke-width="0.25"/>
<path d="M 417.56 342.82 C 418.59 342.74 419.62 342.66 420.66 342.59 C 419.07 343.42 418.43 345.11 417.55 346.54 C 412.55 355.54 406.24 363.76 399.46 371.49 C 396.50 374.43 394.01 377.96 390.33 380.07 C 389.39 377.88 391.42 376.83 392.51 375.49 C 402.35 365.90 411.25 355.07 417.56 342.82 Z" fill="#040404" opacity="1.00" stroke="#040404" stroke-width="0.25"/>
<path d="M 362.71 350.52 C 366.67 349.96 369.27 353.76 372.09 355.89 C 374.14 357.28 373.96 360.00 373.36 362.10 C 372.22 364.55 369.30 363.68 367.23 363.35 C 366.79 374.33 366.77 385.33 366.50 396.31 C 364.45 397.15 362.44 398.05 360.40 398.91 C 361.21 382.78 361.88 366.64 362.71 350.52 Z" fill="#040404" opacity="1.00" stroke="#040404" stroke-width="0.25"/>
<path d="M 105.14 359.52 C 106.09 359.14 107.19 359.12 107.79 360.12 C 111.68 365.22 116.24 369.78 120.25 374.78 L 118.30 374.32 C 113.35 369.93 109.35 364.59 105.14 359.52 Z" fill="#040404" opacity="1.00" stroke="#040404" stroke-width="0.25"/>
<path d="M 305.97 383.94 C 306.43 387.10 307.13 390.23 307.81 393.36 C 305.71 394.29 303.61 395.21 301.38 395.77 C 303.13 391.91 304.62 387.95 305.97 383.94 Z" fill="#fafafa" opacity="1.00" stroke="#fafafa" stroke-width="0.25"/>
<path d="M 228.76 387.98 C 229.91 393.57 232.92 398.45 234.84 403.72 C 231.35 402.46 227.97 400.89 224.40 399.82 C 226.09 395.96 227.56 392.02 228.76 387.98 Z" fill="#fafafa" opacity="1.00" stroke="#fafafa" stroke-width="0.25"/>
<path d="M 220.19 424.56 C 242.34 424.76 264.50 424.89 286.65 424.57 C 286.83 432.67 286.67 440.77 286.69 448.87 C 264.57 449.19 242.43 449.36 220.32 448.89 C 220.20 440.78 220.30 432.67 220.19 424.56 Z" fill="#fafafa" opacity="1.00" stroke="#fafafa" stroke-width="0.25"/>
<path d="M 252.56 429.67 C 257.95 425.41 266.02 431.70 264.42 437.97 C 263.56 443.67 255.75 446.74 251.51 442.58 C 247.28 439.35 247.94 432.23 252.56 429.67 Z" fill="#040404" opacity="1.00" stroke="#040404" stroke-width="0.25"/>
<path d="M 254.52 433.28 C 256.06 433.28 257.86 432.73 259.18 433.81 C 260.63 436.28 259.50 440.49 255.96 439.61 C 252.94 438.78 253.23 435.46 254.52 433.28 Z" fill="#fafafa" opacity="1.00" stroke="#fafafa" stroke-width="0.25"/>
</svg>